<svg xmlns="http://www.w3.org/2000/svg" width="58.59" height="58.59" viewBox="0 0 58.59 58.59"><defs><style>.a{fill:#fbb540;}.b{fill:#cbcbcb;}.c{fill:#dbdbdb;}.d{fill:#89b140;}.e{fill:#4799cf;}.f{fill:#dc4d41;}.g{fill:#eeb58e;}.h{fill:#6cbae5;}.i{fill:#ffb1b5;}.j{fill:#d970a2;}.k{fill:#ea9d2d;}.l{fill:#3775a4;}.m{fill:#c38325;}.n{fill:#f55648;}.o{fill:#e4e4e2;}</style></defs><g transform="translate(-23.999 -24)"><path class="a" d="M304,184l7.071,3.031,6.061-1.01,1.01,3.031-5.7,1.629a6.313,6.313,0,0,1-2.772.157l-4.657-.776Z" transform="translate(-244.645 -139.797)"/><path class="b" d="M95.031,124.118a1.01,1.01,0,0,1-.867-.491l-.419-.7A16.43,16.43,0,0,1,91.5,112.905a1.01,1.01,0,1,1,2.01.2,14.4,14.4,0,0,0,1.968,8.783l.419.7a1.01,1.01,0,0,1-.865,1.53Z" transform="translate(-58.908 -76.884)"/><path class="c" d="M113,117.13a1.011,1.011,0,0,1-.972-1.288l1.629-5.7a16.366,16.366,0,0,1,1.1-2.816l1.384-2.768a1.01,1.01,0,1,1,1.807.9l-1.382,2.768a14.333,14.333,0,0,0-.96,2.468l-1.629,5.7A1.01,1.01,0,0,1,113,117.13Z" transform="translate(-76.883 -69.896)"/><path class="b" d="M375.153,131.111a1.007,1.007,0,0,1-.7-.283l-.534-.516a11.415,11.415,0,0,1-3.451-9.4,1.01,1.01,0,1,1,2.01.2,9.406,9.406,0,0,0,2.844,7.748l.535.516a1.01,1.01,0,0,1-.7,1.736Z" transform="translate(-302.666 -83.877)"/><path class="c" d="M399.85,117.131h-.025a1.01,1.01,0,0,1-.986-1.034l.083-3.418a11.517,11.517,0,0,1,1.508-5.416L402,104.508a1.01,1.01,0,1,1,1.754,1l-1.573,2.755a9.488,9.488,0,0,0-1.242,4.463l-.083,3.418A1.01,1.01,0,0,1,399.85,117.131Z" transform="translate(-327.508 -69.897)"/><path class="d" d="M226,91.175a4.041,4.041,0,0,0-7.892,0,3.031,3.031,0,1,0,3.23,4.845,4.009,4.009,0,0,0,1.433,0A3.031,3.031,0,1,0,226,91.175Z" transform="translate(-167.754 -55.923)"/><path class="e" d="M141.132,184l-8.081,6.061-3.031-4.041L128,189.051l2.387,3.581a3.536,3.536,0,0,0,4.378,1.27l6.368-2.83Z" transform="translate(-90.868 -139.797)"/><path class="a" d="M203.932,184h-5.051v4.907a24.158,24.158,0,0,1-1.407,8.126l-2.893,8.1a8.334,8.334,0,0,0-.351,4.293l.887,4.878H200.9l1.01-4.041,3.031-7.071Z" transform="translate(-148.617 -139.797)"/><path class="e" d="M273.01,203.193l4.041,4.041-.505,2.02,4.748,2.02,2.414-4.024a6.061,6.061,0,0,0-.911-7.4l-3.725-3.725L276.041,184H272Z" transform="translate(-216.685 -139.797)"/><path class="f" d="M172.316,424l.735,4.041h-1.01A4.041,4.041,0,0,0,168,432.081h8.081L178.1,424Z" transform="translate(-125.817 -349.491)"/><ellipse class="g" cx="3" cy="3.5" rx="3" ry="3.5" transform="translate(33.999 43.59)"/><ellipse class="g" cx="3" cy="3.5" rx="3" ry="3.5" transform="translate(69.999 43.59)"/><path class="h" d="M56,29.556a7.071,7.071,0,0,0,2.828,5.657,4.546,4.546,0,0,0,5.455,0,7.071,7.071,0,0,0,2.828-5.657,5.556,5.556,0,0,0-11.112,0Z" transform="translate(-27.96 0)"/><path class="f" d="M25.038,72.79a7.071,7.071,0,0,0,5.593,2.953,4.546,4.546,0,0,0,4.436-3.175,7.071,7.071,0,0,0-.993-6.246,5.556,5.556,0,1,0-9.035,6.468Z" transform="translate(0 -34.949)"/><path class="i" d="M120.939,28.121a7.071,7.071,0,0,0,1.088,6.23,4.546,4.546,0,0,0,5.226,1.563,7.071,7.071,0,0,0,4.331-4.609,5.556,5.556,0,1,0-10.646-3.185Z" transform="translate(-84.44 -0.136)"/><path class="j" d="M334.842,37.556a7.071,7.071,0,0,0,2.828,5.657,4.546,4.546,0,0,0,5.455,0,7.071,7.071,0,0,0,2.828-5.657,5.556,5.556,0,1,0-11.112,0Z" transform="translate(-271.592 -6.99)"/><path class="k" d="M399.781,28.624a7.071,7.071,0,0,0,1.088,6.23,4.546,4.546,0,0,0,5.226,1.563,7.071,7.071,0,0,0,4.331-4.609,5.556,5.556,0,1,0-10.646-3.185Z" transform="translate(-328.072 -0.576)"/><path class="l" d="M286.058,218.265a1.011,1.011,0,0,1-.958-1.33L286.411,213a2.1,2.1,0,0,0-.731-2.341,8.357,8.357,0,0,1-3.185-5.053l-2.479-12.4a1.01,1.01,0,0,1,1.981-.4l2.479,12.4a6.339,6.339,0,0,0,2.416,3.833,4.112,4.112,0,0,1,1.436,4.6l-1.312,3.936A1.01,1.01,0,0,1,286.058,218.265Z" transform="translate(-223.672 -146.787)"/><circle class="m" cx="1" cy="1" r="1" transform="translate(47.999 69.59)"/><ellipse class="d" cx="1.5" cy="1" rx="1.5" ry="1" transform="translate(50.999 63.59)"/><circle class="n" cx="1" cy="1" r="1" transform="translate(49.999 59.59)"/><circle class="n" cx="1" cy="1" r="1" transform="translate(47.999 65.59)"/><circle class="d" cx="1" cy="1" r="1" transform="translate(51.999 56.59)"/><ellipse class="m" cx="1.5" cy="1" rx="1.5" ry="1" transform="translate(50.999 52.59)"/><path class="f" d="M297.515,384,296,390.061l6.061,5.051.709-.709a3.283,3.283,0,0,0,0-4.643l-1.719-1.719,1.212-2.02Z" transform="translate(-237.655 -314.542)"/><path class="o" d="M232,184l5.051,4.041L241.092,184Z" transform="translate(-181.736 -139.797)"/><path class="g" d="M240,136h6.061v3.031a3.031,3.031,0,0,1-6.061,0Z" transform="translate(-188.726 -97.858)"/><circle class="f" cx="0.5" cy="0.5" r="0.5" transform="translate(53.999 40.59)"/></g></svg>